<svg id="visual" viewBox="0 0 5000 5000" width="5000" height="5000" xmlns="http://www.w3.org/2000/svg" xmlns:xlink="http://www.w3.org/1999/xlink" version="1.1"><g transform="translate(2367.358155101252 2463.147389910362)"><path d="M873.2 -1487.3C1075.4 -1395.7 1144.4 -1048.1 1320 -757.6C1495.5 -467 1777.8 -233.5 1936.4 91.6C2095 416.7 2130 833.3 1900.2 1029.9C1670.4 1226.5 1175.7 1203 814.8 1291.7C454 1380.4 227 1581.2 -23.9 1622.6C-274.8 1664 -549.7 1546.1 -907.6 1455.7C-1265.6 1365.4 -1706.7 1302.7 -1785.2 1064.7C-1863.8 826.7 -1579.9 413.3 -1410.9 97.6C-1241.9 -218.2 -1187.8 -436.3 -1146.6 -739.2C-1105.4 -1042 -1077.2 -1429.4 -888.3 -1528.7C-699.3 -1628 -349.7 -1439 -7.1 -1426.7C335.5 -1414.4 671 -1578.9 873.2 -1487.3" fill="#0066FF"></path></g></svg>