<svg id="visual" viewBox="0 0 5000 5000" width="5000" height="5000" xmlns="http://www.w3.org/2000/svg" xmlns:xlink="http://www.w3.org/1999/xlink" version="1.1"><g transform="translate(2755.587793698126 2686.378561802935)"><path d="M617 -1241C817.4 -953 1009.7 -823.5 1179.5 -643.1C1349.4 -462.7 1496.7 -231.3 1540.8 25.5C1585 282.3 1526 564.7 1379.5 785.5C1233 1006.3 999 1165.7 754.5 1355.2C510 1544.7 255 1764.3 -35.5 1825.8C-326 1887.3 -652 1790.6 -844.8 1571.3C-1037.7 1352 -1097.3 1010 -1351 727.7C-1604.7 445.3 -2052.3 222.7 -2066 -7.9C-2079.8 -238.5 -1659.5 -477 -1442.4 -822.7C-1225.4 -1168.4 -1211.4 -1621.3 -1004.9 -1905.7C-798.3 -2190.1 -399.2 -2306 -95.4 -2140.8C208.3 -1975.5 416.7 -1529 617 -1241" fill="#0066FF"></path></g></svg>