<svg id="visual" viewBox="0 0 5000 5000" width="5000" height="5000" xmlns="http://www.w3.org/2000/svg" xmlns:xlink="http://www.w3.org/1999/xlink" version="1.1"><rect x="0" y="0" width="5000" height="5000" fill="#3A3A3A"></rect><path d="M0 2437L83.3 2353.2C166.7 2269.3 333.3 2101.7 500 2063.8C666.7 2026 833.3 2118 1000 2175.3C1166.7 2232.7 1333.3 2255.3 1500 2207.8C1666.7 2160.3 1833.3 2042.7 2000 2061.8C2166.7 2081 2333.3 2237 2500 2296.7C2666.7 2356.3 2833.3 2319.7 3000 2229.3C3166.7 2139 3333.3 1995 3500 2038.8C3666.7 2082.7 3833.3 2314.3 4000 2391.3C4166.7 2468.3 4333.3 2390.7 4500 2409.2C4666.7 2427.7 4833.3 2542.3 4916.7 2599.7L5000 2657L5000 0L4916.7 0C4833.3 0 4666.7 0 4500 0C4333.3 0 4166.7 0 4000 0C3833.3 0 3666.7 0 3500 0C3333.3 0 3166.7 0 3000 0C2833.3 0 2666.7 0 2500 0C2333.3 0 2166.7 0 2000 0C1833.3 0 1666.7 0 1500 0C1333.3 0 1166.7 0 1000 0C833.3 0 666.7 0 500 0C333.3 0 166.7 0 83.3 0L0 0Z" fill="#0066FF" stroke-linecap="round" stroke-linejoin="miter"></path></svg>