<svg id="visual" viewBox="0 0 5000 5000" width="5000" height="5000" xmlns="http://www.w3.org/2000/svg" xmlns:xlink="http://www.w3.org/1999/xlink" version="1.1"><rect x="0" y="0" width="5000" height="5000" fill="#3A3A3A"></rect><path d="M0 2163L64.2 2142.8C128.3 2122.7 256.7 2082.3 384.8 2069C513 2055.7 641 2069.3 769.2 2081.7C897.3 2094 1025.7 2105 1153.8 2139.8C1282 2174.7 1410 2233.3 1538.2 2294C1666.3 2354.7 1794.7 2417.3 1923 2386.2C2051.3 2355 2179.7 2230 2307.8 2188.7C2436 2147.3 2564 2189.7 2692.2 2267.5C2820.3 2345.3 2948.7 2458.7 3077 2499.2C3205.3 2539.7 3333.7 2507.3 3461.8 2428C3590 2348.7 3718 2222.3 3846.2 2224.7C3974.3 2227 4102.7 2358 4230.8 2345.3C4359 2332.7 4487 2176.3 4615.2 2140.2C4743.3 2104 4871.7 2188 4935.8 2230L5000 2272L5000 0L4935.8 0C4871.7 0 4743.3 0 4615.2 0C4487 0 4359 0 4230.8 0C4102.7 0 3974.3 0 3846.2 0C3718 0 3590 0 3461.8 0C3333.7 0 3205.3 0 3077 0C2948.7 0 2820.3 0 2692.2 0C2564 0 2436 0 2307.8 0C2179.7 0 2051.3 0 1923 0C1794.7 0 1666.3 0 1538.2 0C1410 0 1282 0 1153.8 0C1025.7 0 897.3 0 769.2 0C641 0 513 0 384.8 0C256.7 0 128.3 0 64.2 0L0 0Z" fill="#0066FF" stroke-linecap="round" stroke-linejoin="miter"></path></svg>